<svg width="50" height="34" fill="none" xmlns="http://www.w3.org/2000/svg"><path d="M24.402 20.469c.635 0 1.224.147 1.768.442.555.295.997.725 1.326 1.292.34.567.51 1.235.51 2.006 0 .77-.187 1.456-.561 2.057a3.817 3.817 0 0 1-1.496 1.411 4.514 4.514 0 0 1-2.108.493 4.24 4.24 0 0 1-1.411-.238 3.02 3.02 0 0 1-1.156-.714c-.159-.113-.238-.25-.238-.408 0-.136.051-.26.153-.374a.452.452 0 0 1 .357-.187c.136 0 .278.062.425.187.476.51 1.133.765 1.972.765a3.15 3.15 0 0 0 1.513-.374c.465-.25.833-.6 1.105-1.054.272-.453.408-.963.408-1.53 0-.623-.142-1.145-.425-1.564a2.383 2.383 0 0 0-1.088-.918 3.327 3.327 0 0 0-1.411-.306c-.136 0-.312.023-.527.068a3.662 3.662 0 0 1-.408.051.461.461 0 0 1-.34-.136.591.591 0 0 1-.119-.374c0-.147.057-.278.17-.391l3.247-3.604h-4.726a.52.52 0 0 1-.357-.136.483.483 0 0 1-.136-.357c0-.136.045-.25.136-.34a.52.52 0 0 1 .357-.136h5.712c.181 0 .312.057.391.17a.52.52 0 0 1 .136.357.52.52 0 0 1-.17.374L24.3 20.469h.102Z" fill="#fff"/><path d="M25 1.04 1 11m24-9.96L24.905 1m.095.04.095-.04M25 1.04 49 11" stroke="#fff"/></svg>