<svg width="50" height="29" fill="none" xmlns="http://www.w3.org/2000/svg"><path d="M25.307 14.1a.422.422 0 0 1 .306.17c.091.09.136.204.136.34v10.88a.484.484 0 0 1-.17.374.566.566 0 0 1-.39.136.543.543 0 0 1-.375-.136.509.509 0 0 1-.153-.374v-9.945l-2.125 1.258a.475.475 0 0 1-.238.068.538.538 0 0 1-.39-.17.547.547 0 0 1-.154-.374c0-.08.023-.159.068-.238a.64.64 0 0 1 .204-.187l2.873-1.734a.605.605 0 0 1 .408-.068Z" fill="#fff"/><path d="M25 1.04 1 11m24-9.96L24.905 1m.095.04.095-.04M25 1.04 49 11" stroke="#fff"/></svg>