<svg width="50" height="34" fill="none" xmlns="http://www.w3.org/2000/svg"><path d="M28.058 27.014c.136 0 .25.051.34.153.102.09.153.204.153.34a.455.455 0 0 1-.153.357.461.461 0 0 1-.34.136h-6.375a.567.567 0 0 1-.39-.136.475.475 0 0 1-.154-.374c0-.125.046-.244.136-.357l3.927-4.335c.635-.68 1.105-1.286 1.411-1.819.306-.544.46-1.077.46-1.598 0-.77-.233-1.377-.698-1.819-.464-.442-1.11-.663-1.938-.663-.555 0-1.054.136-1.496.408-.43.26-.753.663-.969 1.207-.124.204-.272.306-.442.306a.564.564 0 0 1-.357-.136c-.113-.09-.17-.193-.17-.306 0-.068.023-.147.068-.238.046-.09.102-.181.17-.272a3.232 3.232 0 0 1 1.326-1.428 3.81 3.81 0 0 1 1.938-.51c1.145 0 2.04.312 2.686.935.646.623.97 1.44.97 2.448 0 .623-.17 1.264-.51 1.921-.34.646-.902 1.4-1.684 2.261l-3.128 3.519h5.22Z" fill="#fff"/><path d="M25 1.04 1 11m24-9.96L24.905 1m.095.04.095-.04M25 1.04 49 11" stroke="#fff"/></svg>