<svg width="30" height="30" fill="none" xmlns="http://www.w3.org/2000/svg"><path d="M28.52 8.211a3.532 3.532 0 0 0-2.485-2.5c-2.192-.592-10.982-.592-10.982-.592s-8.789 0-10.98.591a3.532 3.532 0 0 0-2.486 2.501C1 10.418 1 15.021 1 15.021s0 4.602.587 6.809c.324 1.217 1.276 2.135 2.485 2.46 2.192.592 10.982.592 10.982.592s8.789 0 10.98-.591c1.21-.326 2.162-1.244 2.486-2.461.587-2.207.587-6.81.587-6.81s0-4.602-.587-6.809ZM12.179 19.2V10.84l7.346 4.18-7.346 4.179Z" fill="#333" stroke="#707070"/></svg>