<svg xmlns="http://www.w3.org/2000/svg" width="128" height="68" fill="none"><path fill="#fff" d="M64.52 37.6a.795.795 0 0 1 .576.32c.17.17.256.384.256.64v20.48a.911.911 0 0 1-.32.704c-.192.17-.438.256-.736.256-.278 0-.512-.085-.704-.256a.958.958 0 0 1-.288-.704V40.32l-4 2.368a.896.896 0 0 1-.448.128c-.278 0-.523-.106-.736-.32a1.03 1.03 0 0 1-.288-.704c0-.15.042-.298.128-.448.106-.15.234-.266.384-.352l5.408-3.264c.213-.128.47-.17.768-.128Z"/><path stroke="#fff" d="M64 1.106 1 28M64 1.106 63.75 1m.25.106L64.25 1m-.25.106L127 28"/></svg>