<svg xmlns="http://www.w3.org/2000/svg" width="112" height="54" fill="none"><path fill="#fff" fill-rule="evenodd" d="m56.096.11 55.906 22.976-.404.914-55.66-22.874L.405 23.949 0 23.034 56.048 0l.048.11Z" clip-rule="evenodd"/><path fill="#fff" d="M61.023 46.608c.192 0 .352.072.48.216a.616.616 0 0 1 .216.48.642.642 0 0 1-.216.504.651.651 0 0 1-.48.192h-9a.8.8 0 0 1-.552-.192c-.144-.128-.216-.304-.216-.528 0-.176.064-.344.192-.504l5.544-6.12c.896-.96 1.56-1.816 1.992-2.568.432-.768.648-1.52.648-2.256 0-1.088-.328-1.944-.984-2.568-.656-.624-1.568-.936-2.736-.936-.784 0-1.488.192-2.112.576-.608.368-1.064.936-1.368 1.704-.176.288-.384.432-.624.432a.796.796 0 0 1-.504-.192c-.16-.128-.24-.272-.24-.432 0-.096.032-.208.096-.336.064-.128.144-.256.24-.384a4.562 4.562 0 0 1 1.872-2.016 5.378 5.378 0 0 1 2.736-.72c1.616 0 2.88.44 3.792 1.32.912.88 1.368 2.032 1.368 3.456 0 .88-.24 1.784-.72 2.712-.48.912-1.272 1.976-2.376 3.192l-4.416 4.968h7.368Z"/></svg>