<svg xmlns="http://www.w3.org/2000/svg" width="112" height="54" fill="none"><path fill="#fff" d="M55.362 37.368c.896 0 1.728.208 2.496.624a4.662 4.662 0 0 1 1.872 1.824c.48.8.72 1.744.72 2.832 0 1.088-.264 2.056-.792 2.904a5.389 5.389 0 0 1-2.112 1.992c-.896.464-1.888.696-2.976.696a5.987 5.987 0 0 1-1.992-.336 4.261 4.261 0 0 1-1.632-1.008c-.224-.16-.336-.352-.336-.576 0-.192.072-.368.216-.528.144-.176.312-.264.504-.264s.392.088.6.264c.672.72 1.6 1.08 2.784 1.08.768 0 1.48-.176 2.136-.528a3.985 3.985 0 0 0 1.56-1.488c.384-.64.576-1.36.576-2.16 0-.88-.2-1.616-.6-2.208a3.363 3.363 0 0 0-1.536-1.296 4.697 4.697 0 0 0-1.992-.432c-.192 0-.44.032-.744.096a5.172 5.172 0 0 1-.576.072.651.651 0 0 1-.48-.192.834.834 0 0 1-.168-.528c0-.208.08-.392.24-.552l4.584-5.088h-6.672a.735.735 0 0 1-.504-.192.769.769 0 0 1-.192-.504c0-.192.064-.352.192-.48a.735.735 0 0 1 .504-.192h8.064c.256 0 .44.08.552.24a.735.735 0 0 1 .192.504c0 .192-.08.368-.24.528l-4.392 4.896h.144Z"/><path fill="#fff" fill-rule="evenodd" d="m56.096.11 55.906 22.976-.404.914-55.66-22.874L.405 23.949 0 23.034 56.048 0l.048.11Z" clip-rule="evenodd"/></svg>