<svg xmlns="http://www.w3.org/2000/svg" width="162" height="50" fill="none"><path fill="#3EB6CF" d="M24.171 23.56h-4.9v-4.9h4.9v4.9Zm-.895 7.772v-4.9h4.9v4.9h-4.9Zm-7.831 0v-4.9h4.9v4.9h-4.9Z"/><path fill="#3EB6CF" d="m30.152 45.217-5.913 3.39a4.895 4.895 0 0 1-4.863 0L6.73 41.36v-7.716l15.077 8.638 8.345-4.784 6.73-3.857V21.657h6.734v13.055a4.821 4.821 0 0 1-2.431 4.181l-4.301 2.466v4.783L30.154 50l-.002-4.783ZM0 28.337v-13.05a4.819 4.819 0 0 1 2.432-4.18l4.3-2.465V3.857L13.462 0v4.784l5.917-3.392a4.887 4.887 0 0 1 4.862 0L36.885 8.64v7.718L21.809 7.714 6.732 16.358v11.983L0 28.338Zm49.134 5.991c.058-.205.114-.459.168-.762.054-.302.1-.678.14-1.128.038-.449.068-.983.087-1.604.02-.62.03-1.345.03-2.175v-9.536c0-.83-.01-1.555-.03-2.175-.02-.62-.049-1.158-.088-1.612a12.993 12.993 0 0 0-.139-1.135 7.773 7.773 0 0 0-.168-.761v-.06h3.515v.06a7.773 7.773 0 0 0-.168.761 11.68 11.68 0 0 0-.132 1.135 47.89 47.89 0 0 0-.088 1.612 56.2 56.2 0 0 0-.036 2.175v3.267l8.554-6.988c.957-.78 1.436-1.455 1.436-2.021h4.116v.059c-.576.136-1.16.397-1.75.783a19.86 19.86 0 0 0-1.883 1.414l-7.558 6.328 9.096 9.99c.381.39.706.715.974.974.269.259.506.474.71.645.206.17.394.312.565.425.17.112.349.222.534.33v.058h-4.292a2.306 2.306 0 0 0-.197-.337 5.437 5.437 0 0 0-.322-.425 14.496 14.496 0 0 0-.396-.454 50.62 50.62 0 0 0-.403-.44l-9.184-10.078v6.006c0 .83.012 1.555.036 2.175.025.62.054 1.155.088 1.604.034.45.078.826.132 1.128.054.303.11.557.168.762v.059h-3.515v-.059Zm18.369-4.263c0-.771.159-1.44.476-2.006.317-.567.74-1.05 1.267-1.45a6.927 6.927 0 0 1 1.802-.975 13.546 13.546 0 0 1 2.095-.586 18.578 18.578 0 0 1 2.138-.293 32.66 32.66 0 0 1 1.934-.095v-.747c0-.644-.083-1.201-.25-1.67a3.113 3.113 0 0 0-.702-1.164 2.85 2.85 0 0 0-1.092-.689 4.143 4.143 0 0 0-1.399-.227c-.351 0-.698.03-1.04.088a5.887 5.887 0 0 0-1.062.293 7.74 7.74 0 0 0-1.157.557c-.405.234-.842.532-1.31.893l-.147-.088.996-2.065c.322-.147.64-.266.952-.36a9.018 9.018 0 0 1 1.94-.35c.338-.025.692-.037 1.063-.037 1.025 0 1.902.124 2.63.373.727.25 1.323.591 1.786 1.026.464.434.804.942 1.018 1.523.215.581.323 1.204.323 1.868v4.775c0 .83.012 1.555.036 2.175.025.62.054 1.155.088 1.604.034.45.078.826.132 1.128.054.303.11.557.169.762v.059H76.95v-.059c.049-.156.086-.332.11-.527.024-.196.046-.43.066-.703a7.579 7.579 0 0 1-.725.542 5.794 5.794 0 0 1-.952.505 6.5 6.5 0 0 1-1.187.366 6.82 6.82 0 0 1-1.428.14c-1.7 0-3.013-.399-3.94-1.195-.928-.795-1.392-1.926-1.392-3.39Zm9.712-4.262a25.32 25.32 0 0 0-2.564.153c-.82.093-1.545.286-2.175.58a3.68 3.68 0 0 0-1.509 1.252c-.376.542-.564 1.262-.564 2.16 0 1.153.288 2.032.865 2.637.576.605 1.372.908 2.387.908.469 0 .896-.066 1.282-.198a4.347 4.347 0 0 0 1.025-.498c.298-.2.55-.42.755-.659a3.26 3.26 0 0 0 .469-.696c.02-.37.029-.783.029-1.237v-4.402Zm7.06-.689c0-.83-.012-1.555-.036-2.175a44.656 44.656 0 0 0-.088-1.604c-.034-.45-.078-.825-.132-1.128a7.787 7.787 0 0 0-.168-.762v-.058h3.383v.058a6.754 6.754 0 0 0-.16.762c-.05.303-.093.679-.133 1.128-.039.45-.068.984-.088 1.604-.019.62-.029 1.345-.029 2.175v3.545c0 .83.01 1.555.03 2.175.019.62.048 1.155.087 1.604.04.45.083.826.132 1.128.05.303.103.557.161.762v.059h-3.383v-.059c.058-.205.114-.459.168-.762a11.5 11.5 0 0 0 .132-1.128c.034-.449.063-.983.088-1.604.024-.62.036-1.345.036-2.175v-3.545Zm-.307-10.166c0-.215.041-.417.124-.608a1.67 1.67 0 0 1 .33-.498 1.54 1.54 0 0 1 1.113-.461c.225 0 .432.041.623.124a1.603 1.603 0 0 1 .835.835c.083.19.124.393.124.608 0 .45-.151.825-.454 1.128a1.531 1.531 0 0 1-1.128.454 1.54 1.54 0 0 1-1.113-.461 1.67 1.67 0 0 1-.33-.498 1.54 1.54 0 0 1-.124-.623Zm17.534 9.566c0-1.29-.259-2.237-.776-2.842-.518-.606-1.211-.908-2.08-.908a3.44 3.44 0 0 0-1.077.197c-.396.132-.8.31-1.216.535a11.604 11.604 0 0 0-2.38 1.729v5.434c0 .83.01 1.555.029 2.175.02.62.049 1.155.088 1.604.039.45.083.826.132 1.128.049.303.102.557.16.762v.059H91v-.059a7.72 7.72 0 0 0 .169-.762c.053-.302.097-.678.131-1.128.034-.449.064-.983.088-1.604.025-.62.037-1.345.037-2.175V18.215a56.2 56.2 0 0 0-.037-2.175 44.676 44.676 0 0 0-.088-1.604 11.5 11.5 0 0 0-.132-1.128 7.783 7.783 0 0 0-.168-.762v-.059h3.384v.059a6.735 6.735 0 0 0-.161.762c-.05.302-.093.678-.132 1.127-.04.45-.069.984-.088 1.605-.02.62-.03 1.345-.03 2.175v3.75c.391-.352.823-.698 1.297-1.04.474-.342.964-.65 1.472-.923a8.919 8.919 0 0 1 1.553-.66 5.155 5.155 0 0 1 1.553-.248c.761 0 1.408.132 1.941.395.532.264.966.61 1.303 1.04.337.43.581.92.733 1.473.151.551.227 1.11.227 1.677v4.98a72 72 0 0 0 .029 2.175c.02.62.049 1.155.088 1.604.039.45.083.826.132 1.128.049.303.102.557.161.762v.059h-3.384v-.059a7.72 7.72 0 0 0 .169-.762c.053-.302.097-.678.131-1.128.035-.449.064-.983.088-1.604.025-.62.037-1.345.037-2.175v-4.145Zm5.786 5.551c0-.771.159-1.44.476-2.006.318-.567.74-1.05 1.267-1.45a6.938 6.938 0 0 1 1.802-.975 13.547 13.547 0 0 1 2.095-.586 18.578 18.578 0 0 1 2.138-.293A32.7 32.7 0 0 1 117 24.66v-.747c0-.644-.083-1.201-.249-1.67a3.109 3.109 0 0 0-.703-1.164 2.857 2.857 0 0 0-1.091-.689 4.148 4.148 0 0 0-1.399-.227 5.878 5.878 0 0 0-2.102.38 7.741 7.741 0 0 0-1.158.558c-.405.234-.842.532-1.311.893l-.146-.088.996-2.065a7.39 7.39 0 0 1 .952-.36 9.062 9.062 0 0 1 1.941-.35 14.38 14.38 0 0 1 1.062-.037c1.025 0 1.902.124 2.629.373.728.25 1.324.591 1.787 1.026.464.434.804.942 1.019 1.523.214.581.322 1.204.322 1.868v4.775c0 .83.012 1.555.036 2.175.025.62.054 1.155.088 1.604.035.45.078.826.132 1.128.054.303.11.557.169.762v.059h-3.238v-.059a2.98 2.98 0 0 0 .11-.527c.025-.196.047-.43.066-.703a7.602 7.602 0 0 1-.725.542 5.796 5.796 0 0 1-.952.505 6.51 6.51 0 0 1-1.187.366 6.82 6.82 0 0 1-1.428.14c-1.699 0-3.013-.399-3.94-1.195-.928-.795-1.392-1.926-1.392-3.39ZM117 25.803a25.3 25.3 0 0 0-2.563.153c-.821.093-1.546.286-2.176.58a3.68 3.68 0 0 0-1.509 1.252c-.376.542-.564 1.262-.564 2.16 0 1.153.289 2.032.865 2.637.576.605 1.372.908 2.387.908.469 0 .896-.066 1.282-.198a4.352 4.352 0 0 0 1.026-.498c.297-.2.549-.42.754-.659a3.26 3.26 0 0 0 .469-.696c.019-.37.029-.783.029-1.237v-4.402Zm16.743-1.29c0-.644-.066-1.2-.198-1.67-.131-.468-.322-.856-.571-1.164a2.331 2.331 0 0 0-.901-.688 2.932 2.932 0 0 0-1.172-.227c-.293 0-.62.058-.981.175a7.414 7.414 0 0 0-1.121.477 11.296 11.296 0 0 0-2.248 1.545c-.02.312-.03.647-.03 1.003v4.695c0 .83.01 1.555.03 2.175.019.62.049 1.155.088 1.604.039.45.083.826.132 1.128.048.303.102.557.161.762v.059h-3.384v-.059a7.77 7.77 0 0 0 .168-.762 11.5 11.5 0 0 0 .132-1.128c.034-.449.064-.983.088-1.604.024-.62.037-1.345.037-2.175v-3.545c0-.83-.013-1.555-.037-2.175a44.172 44.172 0 0 0-.088-1.604c-.034-.45-.078-.825-.132-1.128a7.77 7.77 0 0 0-.168-.762v-.058h3.384v.058a4.26 4.26 0 0 0-.183.857 40.55 40.55 0 0 0-.14 1.311c.391-.312.811-.62 1.26-.923a12.02 12.02 0 0 1 1.384-.805c.474-.235.95-.425 1.429-.572.478-.146.952-.22 1.421-.22.556 0 1.049.074 1.479.22.43.147.806.347 1.128.601.322.254.593.552.813.894.22.341.388.708.505 1.098a19.15 19.15 0 0 1 1.311-1.018 12.61 12.61 0 0 1 1.465-.9 9.53 9.53 0 0 1 1.538-.645 5.045 5.045 0 0 1 1.531-.25c.762 0 1.409.133 1.941.396.532.264.967.61 1.304 1.04.337.43.581.92.732 1.473.151.551.227 1.11.227 1.677v4.98a72 72 0 0 0 .029 2.175c.02.62.049 1.155.088 1.604.039.45.086.826.139 1.128.054.303.11.557.169.762v.059h-3.398v-.059c.058-.205.114-.459.168-.762.054-.302.1-.678.139-1.128.039-.449.068-.983.088-1.604.02-.62.029-1.345.029-2.175v-4.145c0-1.29-.258-2.237-.776-2.842-.518-.606-1.211-.908-2.08-.908-.303 0-.637.058-1.004.175a7.133 7.133 0 0 0-1.135.484 11.628 11.628 0 0 0-2.27 1.567 2.2 2.2 0 0 1 .029.352v5.317c0 .83.012 1.555.037 2.175.024.62.053 1.155.088 1.604.034.45.078.826.131 1.128.054.303.11.557.169.762v.059h-3.384v-.059a6.68 6.68 0 0 0 .161-.762c.049-.302.093-.678.132-1.128.039-.449.068-.983.088-1.604a72 72 0 0 0 .029-2.175v-4.145Zm15.571 5.552c0-.771.159-1.44.477-2.006a4.66 4.66 0 0 1 1.267-1.45 6.932 6.932 0 0 1 1.801-.975 13.547 13.547 0 0 1 2.095-.586 18.625 18.625 0 0 1 2.139-.293 32.629 32.629 0 0 1 1.933-.095v-.747c0-.644-.083-1.201-.249-1.67a3.109 3.109 0 0 0-.703-1.164 2.85 2.85 0 0 0-1.091-.689 4.144 4.144 0 0 0-1.399-.227 5.878 5.878 0 0 0-2.102.38 7.733 7.733 0 0 0-1.157.558c-.406.234-.843.532-1.311.893l-.147-.088.996-2.065c.323-.147.64-.266.952-.36a9.021 9.021 0 0 1 1.941-.35 14.38 14.38 0 0 1 1.062-.037c1.026 0 1.902.124 2.63.373.727.25 1.323.591 1.787 1.026.464.434.803.942 1.018 1.523a5.34 5.34 0 0 1 .322 1.868v4.775c0 .83.012 1.555.037 2.175.024.62.054 1.155.088 1.604.034.45.078.826.132 1.128.053.303.109.557.168.762v.059h-3.237v-.059a3.07 3.07 0 0 0 .11-.527c.024-.196.046-.43.065-.703a7.477 7.477 0 0 1-.725.542 5.755 5.755 0 0 1-.952.505 6.5 6.5 0 0 1-1.186.366c-.435.093-.911.14-1.429.14-1.699 0-3.012-.399-3.94-1.195-.928-.795-1.392-1.926-1.392-3.39Zm9.712-4.262c-.888.01-1.743.06-2.563.153-.82.093-1.546.286-2.175.58a3.68 3.68 0 0 0-1.509 1.252c-.376.542-.564 1.262-.564 2.16 0 1.153.288 2.032.864 2.637.576.605 1.372.908 2.388.908.469 0 .896-.066 1.282-.198a4.363 4.363 0 0 0 1.025-.498c.298-.2.549-.42.754-.659.205-.24.362-.471.469-.696.02-.37.029-.783.029-1.237v-4.402Z"/></svg>